<svg xmlns="http://www.w3.org/2000/svg" version="1.1" xmlns:xlink="http://www.w3.org/1999/xlink" xmlns:svgjs="http://svgjs.dev/svgjs" width="1920" height="1053" preserveAspectRatio="none" viewBox="0 0 1920 1053">
    <g mask="url(&quot;#SvgjsMask1253&quot;)" fill="none">
        <rect width="1920" height="1053" x="0" y="0" fill="#0e2a47"></rect>
        <path 
            d="M916.3828684260496 743.7135791900893L752.2889661696944 615.5093719598007 624.0847589394058 779.603274216156 788.178661195761 907.8074814464445z" 
            fill="rgba(15, 61, 117)" 
            class="triangle-float3">
        </path>
        <path 
            d="M134.988,964.172C171.586,965.751,209.879,954.628,229.08,923.431C249.075,890.944,246.946,848.422,225.748,816.707C206.503,787.914,169.572,780.825,134.988,782.656C104.011,784.296,75.592,799.005,59.475,825.51C42.67,853.147,38.51,887.472,53.979,915.878C70.094,945.47,101.324,962.72,134.988,964.172" 
            fill="rgba(15, 61, 117)" 
            class="triangle-float1">
        </path>
        <path 
            d="M408.9671026989638 1154.7050727601577L475.7024471782114 905.645376502994 226.64275092104774 838.9100320237465 159.90740644180013 1087.9697282809102z" 
            fill="rgba(15, 61, 117)" 
            class="triangle-float1">
        </path>
        <path 
            d="M498.73,1249.441C566.829,1249.603,634.712,1226.492,671.673,1169.297C711.881,1107.077,724.123,1024.774,684.273,962.325C646.55,903.21,568.749,894.413,498.73,898.279C436.633,901.708,378.908,928.519,345.577,981.025C309.514,1037.835,293.862,1110.03,327.21,1168.475C360.792,1227.33,430.968,1249.279,498.73,1249.441" 
            fill="rgba(15, 61, 117)" 
            class="triangle-float1">
        </path>
        <path 
            d="M969.9028771722332 864.4000491294538L1115.8677164671442 932.4645715140344 1183.9322388517248 786.4997322191235 1037.967399556814 718.4352098345429z" 
            fill="rgba(15, 61, 117)" 
            class="triangle-float3">
        </path>
        <path 
            d="M220.72 368.82 a244.8 244.8 0 1 0 489.6 0 a244.8 244.8 0 1 0 -489.6 0z" 
            fill="rgba(15, 61, 117)" 
            class="triangle-float3">
        </path>
        <path 
            d="M501.78805895852724 485.9667731410796L421.2645472225357 695.1416326578432 615.2902231562854 667.8731022084182z" 
            fill="rgba(15, 61, 117)" 
            class="triangle-float2">
        </path>
        <path 
            d="M1660.6830260953618 931.2810836965493L1778.4424256845316 689.838534336803 1536.9998763247852 572.0791347476334 1419.2404767356156 813.5216841073797z" 
            fill="rgba(15, 61, 117)" 
            class="triangle-float1">
        </path>
        <path 
            d="M709.42 210.92 a175.52 175.52 0 1 0 351.04 0 a175.52 175.52 0 1 0 -351.04 0z" 
            fill="rgba(15, 61, 117)" 
            class="triangle-float2">
        </path>
        <path 
            d="M1509.5495548699935 998.7842365343319L1353.5720029066845 867.9035302099843 1222.6912965823371 1023.8810821732932 1378.668848545646 1154.7617884976407z" 
            fill="rgba(15, 61, 117)" 
            class="triangle-float2">
        </path>
    </g>
    <defs>
        <mask id="SvgjsMask1253">
            <rect width="1920" height="1053" fill="#ffffff"></rect>
        </mask>
        <style>
        @keyframes float1 {
            0% { transform: translate(0, 0); }
            50% { transform: translate(-500px, 0); } /* Increase translation for further movement */
            100% { transform: translate(0, 0); }
        }

        .triangle-float1 {
            animation: float1 10s infinite alternate; /* Increase duration and add alternate to reverse animation */
        }

        @keyframes float2 {
            0% { transform: translate(0, 0); }
            50% { transform: translate(-250px, -250px); } /* Increase translation for further movement */
            100% { transform: translate(0, 0); }
        }

        .triangle-float2 {
            animation: float2 8s infinite alternate; /* Increase duration and add alternate to reverse animation */
        }

        @keyframes float3 {
            0% { transform: translate(0, 0); }
            50% { transform: translate(0, -500px); } /* Increase translation for further movement */
            100% { transform: translate(0, 0); }
        }

        .triangle-float3 {
            animation: float3 12s infinite alternate; /* Increase duration and add alternate to reverse animation */
        }
        </style>
    </defs>
</svg>